<svg width="20.621338" height="31.628418" viewBox="0 0 20.6213 31.6284" fill="none" xmlns="http://www.w3.org/2000/svg" xmlns:xlink="http://www.w3.org/1999/xlink">
	<desc>
			Created with Pixso.
	</desc>
	<defs/>
	<path id="Vector" d="M18.26 0L2.35 0C1.05 0 0 1.05 0 2.35L0 29.27C0 30.57 1.05 31.62 2.35 31.62L18.26 31.62C19.56 31.62 20.62 30.57 20.62 29.27L20.62 2.35C20.62 1.07 19.54 0 18.26 0Z" fill="#FFFFFF" fill-opacity="1.000000" fill-rule="nonzero"/>
	<path id="Vector" d="M1.12 3.79L19.47 3.79L19.47 25.99L1.12 25.99L1.12 3.79Z" fill="#404040" fill-opacity="1.000000" fill-rule="evenodd"/>
	<path id="Vector" d="M14.06 1.41L6.53 1.41C6.24 1.41 5.97 1.66 5.97 1.97C5.97 2.29 6.22 2.53 6.53 2.53L14.06 2.53C14.35 2.53 14.62 2.29 14.62 1.97C14.62 1.68 14.37 1.41 14.06 1.41Z" fill="#6639A6" fill-opacity="1.000000" fill-rule="nonzero"/>
	<path id="Vector" d="M8.51 28.66C8.51 27.67 9.32 26.84 10.31 26.84C11.29 26.84 12.13 27.65 12.13 28.66C12.13 29.65 11.32 30.46 10.31 30.46C9.32 30.48 8.51 29.67 8.51 28.66Z" fill="#6639A6" fill-opacity="1.000000" fill-rule="nonzero"/>
</svg>
