<svg width="12.632080" height="12.607422" viewBox="0 0 12.6321 12.6074" fill="none" xmlns="http://www.w3.org/2000/svg" xmlns:xlink="http://www.w3.org/1999/xlink">
	<desc>
			Created with Pixso.
	</desc>
	<defs/>
	<path id="in" d="M0.13 0.64Q4.5e-5 0.9 4.5e-5 1.24Q4.5e-5 1.58 0.14 1.84Q0.23 2.01 0.37 2.14Q0.44 2.21 0.52 2.26Q0.85 2.49 1.35 2.49Q1.84 2.49 2.18 2.26Q2.26 2.21 2.33 2.14Q2.47 2.01 2.56 1.84Q2.7 1.58 2.7 1.24Q2.7 0.91 2.56 0.65Q2.48 0.48 2.33 0.35Q2.27 0.29 2.2 0.24Q1.86 1.43e-5 1.35 1.43e-5Q0.81 1.43e-5 0.47 0.25Q0.41 0.3 0.36 0.35Q0.22 0.48 0.13 0.64ZM7.18 4.62L7.1 3.57L4.83 3.57L4.83 12.6L7.25 12.6L7.25 6.24Q7.49 5.81 7.86 5.6Q8.25 5.37 8.77 5.37Q9.55 5.37 9.88 5.71Q10.22 6.06 10.22 6.83L10.22 12.6L12.63 12.6L12.63 6.77Q12.61 5.09 11.91 4.25Q11.8 4.12 11.67 4.01Q10.98 3.41 9.77 3.41Q8.85 3.41 8.15 3.79Q7.6 4.09 7.18 4.62ZM0.14 12.6L2.56 12.6L2.56 3.57L0.14 3.57L0.14 12.6Z" fill="#2A2F2F" fill-opacity="1.000000" fill-rule="evenodd"/>
</svg>
