<svg width="15.583740" height="15.580078" viewBox="0 0 15.5837 15.5801" fill="none" xmlns="http://www.w3.org/2000/svg" xmlns:xlink="http://www.w3.org/1999/xlink">
	<desc>
			Created with Pixso.
	</desc>
	<defs/>
	<path id="Vector" d="M7.79 3.79C5.58 3.79 3.79 5.57 3.79 7.79C3.79 10 5.58 11.78 7.79 11.78C10 11.78 11.78 10 11.78 7.79C11.78 5.57 10 3.79 7.79 3.79ZM7.79 10.38C6.36 10.38 5.19 9.22 5.19 7.79C5.19 6.35 6.36 5.19 7.79 5.19C9.22 5.19 10.39 6.35 10.39 7.79C10.39 9.22 9.22 10.38 7.79 10.38ZM12.88 3.63C12.88 4.15 12.46 4.56 11.95 4.56C11.43 4.56 11.01 4.14 11.01 3.63C11.01 3.11 11.43 2.7 11.95 2.7C12.46 2.7 12.88 3.11 12.88 3.63ZM15.52 4.57C15.46 3.32 15.18 2.22 14.27 1.31C13.35 0.4 12.25 0.11 11 0.05C9.71 -0.02 5.86 -0.02 4.57 0.05C3.33 0.11 2.22 0.39 1.31 1.3C0.39 2.22 0.11 3.32 0.05 4.57C-0.02 5.86 -0.02 9.71 0.05 11C0.11 12.25 0.39 13.35 1.31 14.26C2.22 15.17 3.32 15.46 4.57 15.52C5.86 15.59 9.71 15.59 11 15.52C12.25 15.46 13.35 15.18 14.27 14.26C15.18 13.35 15.46 12.25 15.52 11C15.6 9.71 15.6 5.86 15.52 4.57ZM13.86 12.38C13.59 13.06 13.07 13.58 12.38 13.86C11.36 14.27 8.92 14.17 7.79 14.17C6.66 14.17 4.22 14.26 3.2 13.86C2.51 13.59 1.99 13.06 1.71 12.38C1.31 11.35 1.4 8.92 1.4 7.79C1.4 6.65 1.31 4.21 1.71 3.19C1.99 2.51 2.51 1.99 3.2 1.71C4.22 1.3 6.66 1.4 7.79 1.4C8.92 1.4 11.36 1.31 12.38 1.71C13.06 1.98 13.59 2.51 13.86 3.19C14.27 4.22 14.17 6.65 14.17 7.79C14.17 8.92 14.27 11.36 13.86 12.38Z" fill="#2A2F2F" fill-opacity="1.000000" fill-rule="nonzero"/>
</svg>
