<svg width="153.761963" height="51.261230" viewBox="0 0 153.762 51.2612" fill="none" xmlns="http://www.w3.org/2000/svg" xmlns:xlink="http://www.w3.org/1999/xlink">
	<desc>
			Created with Pixso.
	</desc>
	<defs/>
	<path id="Vector" d="M153.76 37.69C153.76 45.15 147.65 51.26 140.19 51.26L13.56 51.26C6.11 51.26 0 45.15 0 37.69L0 13.56C0 6.1 6.11 0 13.56 0L140.19 0C147.65 0 153.76 6.1 153.76 13.56L153.76 37.69Z" fill="#404040" fill-opacity="1.000000" fill-rule="nonzero"/>
	<path id="Available on the" d="M72.08 11.91C72.08 12.23 71.81 12.48 71.48 12.48C71.15 12.48 70.88 12.23 70.88 11.91C70.88 11.6 71.15 11.34 71.48 11.34C71.81 11.34 72.08 11.6 72.08 11.91ZM55.08 16.78L54.35 18.84L53.43 18.84L56.1 11.57L57.01 11.57L59.68 18.84L58.75 18.84L58.02 16.78L55.08 16.78ZM73.42 11.57L74.26 11.57L74.26 18.84L73.42 18.84L73.42 11.57ZM82.36 18.84L81.55 18.84L81.55 11.57L82.39 11.57L82.39 14.26L82.46 14.26C82.64 13.97 82.97 13.32 84.04 13.32C85.41 13.32 86.37 14.41 86.37 16.13C86.37 17.87 85.41 18.96 84.05 18.96C83 18.96 82.64 18.31 82.46 18.01L82.36 18.01L82.36 18.84ZM87.64 11.57L88.48 11.57L88.48 18.84L87.64 18.84L87.64 11.57ZM119.31 14.07C118.48 14.07 117.87 14.61 117.87 15.56L117.87 18.84L117.03 18.84L117.03 11.57L117.87 11.57L117.87 14.24L117.94 14.24C118.2 13.68 118.69 13.32 119.55 13.32C120.66 13.32 121.41 13.98 121.41 15.38L121.41 18.84L120.57 18.84L120.57 15.44C120.57 14.57 120.09 14.07 119.31 14.07ZM114.49 13.39L115.66 13.39L115.66 14.1L114.49 14.1L114.49 17.28C114.49 17.99 114.85 18.1 115.21 18.1C115.4 18.1 115.51 18.08 115.59 18.06L115.76 18.82C115.64 18.86 115.44 18.92 115.13 18.92C114.42 18.92 113.65 18.46 113.65 17.51L113.65 14.1L112.83 14.1L112.83 13.39L113.65 13.39L113.65 12.08L114.49 12.08L114.49 13.39ZM56.52 12.72L55.36 16L57.74 16L56.58 12.72L56.52 12.72ZM68.64 18.1C68.47 18.46 67.97 18.97 67.02 18.97C65.98 18.97 65.16 18.36 65.16 17.3C65.16 16.05 66.26 15.82 67.27 15.69C68.27 15.56 68.68 15.6 68.68 15.19L68.68 15.17C68.68 14.47 68.3 14.06 67.53 14.06C66.73 14.06 66.29 14.48 66.11 14.88L65.31 14.6C65.74 13.6 66.68 13.32 67.5 13.32C68.2 13.32 69.52 13.52 69.52 15.25L69.52 18.84L68.68 18.84L68.68 18.1L68.64 18.1ZM79.02 18.1C78.85 18.46 78.35 18.97 77.4 18.97C76.37 18.97 75.54 18.36 75.54 17.3C75.54 16.05 76.65 15.82 77.66 15.69C78.65 15.56 79.06 15.6 79.06 15.19L79.06 15.17C79.06 14.47 78.69 14.06 77.91 14.06C77.12 14.06 76.68 14.48 76.49 14.88L75.7 14.6C76.12 13.6 77.06 13.32 77.88 13.32C78.58 13.32 79.9 13.52 79.9 15.25L79.9 18.84L79.06 18.84L79.06 18.1L79.02 18.1ZM94.48 17.58C94.22 18.41 93.41 18.96 92.3 18.96C90.73 18.96 89.76 17.84 89.76 16.16C89.76 14.48 90.74 13.32 92.22 13.32C93.35 13.32 94.56 14.02 94.56 16.05L94.56 16.4L90.6 16.4C90.64 17.57 91.32 18.2 92.3 18.2C92.96 18.2 93.45 17.92 93.67 17.35L94.48 17.58ZM103.34 16.15C103.34 17.84 102.35 18.96 100.87 18.96C99.39 18.96 98.4 17.84 98.4 16.15C98.4 14.44 99.39 13.32 100.87 13.32C102.35 13.32 103.34 14.44 103.34 16.15ZM106.85 14.07C106.05 14.07 105.46 14.61 105.46 15.56L105.46 18.84L104.62 18.84L104.62 13.39L105.43 13.39L105.43 14.24L105.5 14.24C105.76 13.69 106.27 13.32 107.09 13.32C108.2 13.32 108.94 13.99 108.94 15.38L108.94 18.84L108.1 18.84L108.1 15.44C108.1 14.58 107.63 14.07 106.85 14.07ZM127.4 17.58C127.15 18.41 126.34 18.96 125.23 18.96C123.65 18.96 122.69 17.84 122.69 16.16C122.69 14.48 123.67 13.32 125.14 13.32C126.28 13.32 127.49 14.02 127.49 16.05L127.49 16.4L123.53 16.4C123.57 17.57 124.25 18.2 125.23 18.2C125.89 18.2 126.38 17.92 126.59 17.35L127.4 17.58ZM63.57 13.39L64.48 13.39L62.46 18.84L61.61 18.84L59.59 13.39L60.5 13.39L62.01 17.74L62.06 17.74L63.57 13.39ZM71.89 18.84L71.05 18.84L71.05 13.39L71.89 13.39L71.89 18.84ZM83.94 14.07C82.91 14.07 82.37 14.9 82.37 16.12C82.37 17.35 82.93 18.2 83.94 18.2C84.99 18.2 85.53 17.28 85.53 16.12C85.53 14.97 85 14.07 83.94 14.07ZM92.22 14.07C91.26 14.07 90.66 14.83 90.6 15.68L93.71 15.68C93.71 14.75 93.13 14.07 92.22 14.07ZM99.24 16.15C99.24 17.24 99.75 18.2 100.87 18.2C101.99 18.2 102.5 17.24 102.5 16.15C102.5 15.05 101.99 14.07 100.87 14.07C99.75 14.07 99.24 15.05 99.24 16.15ZM125.14 14.07C124.19 14.07 123.58 14.83 123.53 15.68L126.64 15.68C126.64 14.75 126.05 14.07 125.14 14.07ZM66 17.34C66 17.92 66.48 18.22 67.15 18.22C68.14 18.22 68.68 17.55 68.68 16.87L68.68 16.1C68.54 16.27 67.59 16.37 67.23 16.42C66.58 16.5 66 16.7 66 17.34ZM76.38 17.34C76.38 17.92 76.86 18.22 77.53 18.22C78.52 18.22 79.06 17.55 79.06 16.87L79.06 16.1C78.92 16.27 77.97 16.37 77.62 16.42C76.96 16.5 76.38 16.7 76.38 17.34Z" fill="#FFFFFF" fill-opacity="1.000000" fill-rule="evenodd"/>
	<path id="App Store" d="M100.29 29.18L98.75 29.18C98.6 27.89 97.39 27.13 95.81 27.13C94.07 27.13 92.92 28.05 92.92 29.31C92.92 30.71 94.48 31.22 95.45 31.48L96.78 31.84C98.14 32.19 100.47 32.99 100.47 35.44C100.47 37.56 98.75 39.22 95.73 39.22C92.92 39.22 91.19 37.77 91.03 35.62L92.67 35.62C92.79 37.1 94.17 37.8 95.73 37.8C97.55 37.8 98.93 36.85 98.93 35.41C98.93 34.11 97.7 33.63 96.32 33.24L94.71 32.78C92.67 32.19 91.39 31.15 91.39 29.38C91.39 27.18 93.36 25.72 95.86 25.72C98.39 25.72 100.22 27.2 100.29 29.18ZM54.28 35.29L52.96 39L51.3 39L56.11 25.9L57.74 25.9L62.55 39L60.89 39L59.57 35.29L54.28 35.29ZM105.04 29.18L107.14 29.18L107.14 30.46L105.04 30.46L105.04 36.18C105.04 37.46 105.68 37.66 106.34 37.66C106.68 37.66 106.88 37.62 107.01 37.59L107.32 38.94C107.11 39.02 106.76 39.12 106.19 39.12C104.92 39.12 103.53 38.31 103.53 36.59L103.53 30.46L102.05 30.46L102.05 29.18L103.53 29.18L103.53 26.83L105.04 26.83L105.04 29.18ZM56.87 27.97L54.77 33.88L59.07 33.88L56.97 27.97L56.87 27.97ZM121.56 39L120.05 39L120.05 29.18L121.51 29.18L121.51 30.66L121.61 30.66C121.97 29.69 122.99 29.02 124.17 29.02C124.39 29.02 124.79 29.04 124.96 29.05L124.96 30.58C124.86 30.56 124.44 30.48 124.04 30.48C122.61 30.48 121.56 31.45 121.56 32.78L121.56 39ZM65.89 42.68L64.39 42.68L64.39 29.18L65.85 29.18L65.85 30.74L66.03 30.74C66.36 30.22 66.94 29.05 68.86 29.05C71.34 29.05 73.06 31.02 73.06 34.11C73.06 37.23 71.34 39.2 68.89 39.2C67 39.2 66.36 38.02 66.03 37.49L65.89 37.49L65.89 42.68ZM76.86 42.68L75.36 42.68L75.36 29.18L76.81 29.18L76.81 30.74L77 30.74C77.32 30.22 77.91 29.05 79.83 29.05C82.31 29.05 84.03 31.02 84.03 34.11C84.03 37.23 82.31 39.2 79.86 39.2C77.97 39.2 77.32 38.02 77 37.49L76.86 37.49L76.86 42.68ZM117.75 34.14C117.75 37.18 115.96 39.2 113.3 39.2C110.64 39.2 108.85 37.18 108.85 34.14C108.85 31.07 110.64 29.05 113.3 29.05C115.96 29.05 117.75 31.07 117.75 34.14ZM134.47 36.72C134.01 38.2 132.55 39.2 130.56 39.2C127.72 39.2 125.98 37.18 125.98 34.16C125.98 31.15 127.75 29.05 130.41 29.05C132.45 29.05 134.62 30.3 134.62 33.96L134.62 34.6L127.5 34.6C127.57 36.7 128.79 37.84 130.56 37.84C131.74 37.84 132.63 37.33 133.01 36.31L134.47 36.72ZM68.69 30.4C66.84 30.4 65.87 31.89 65.87 34.09C65.87 36.31 66.87 37.84 68.69 37.84C70.57 37.84 71.55 36.18 71.55 34.09C71.55 32.02 70.6 30.4 68.69 30.4ZM79.65 30.4C77.81 30.4 76.84 31.89 76.84 34.09C76.84 36.31 77.84 37.84 79.65 37.84C81.54 37.84 82.51 36.18 82.51 34.09C82.51 32.02 81.57 30.4 79.65 30.4ZM110.36 34.14C110.36 36.11 111.28 37.84 113.3 37.84C115.32 37.84 116.24 36.11 116.24 34.14C116.24 32.17 115.32 30.4 113.3 30.4C111.28 30.4 110.36 32.17 110.36 34.14ZM130.41 30.4C128.68 30.4 127.6 31.77 127.5 33.3L133.09 33.3C133.09 31.63 132.04 30.4 130.41 30.4Z" fill="#FFFFFF" fill-opacity="1.000000" fill-rule="evenodd"/>
	<path id="Vector" d="M26.93 10.73L11.02 10.73C9.72 10.73 8.67 11.79 8.67 13.09L8.67 40C8.67 41.31 9.72 42.36 11.02 42.36L26.93 42.36C28.23 42.36 29.29 41.31 29.29 40L29.29 13.09C29.29 11.81 28.21 10.73 26.93 10.73Z" fill="#FFFFFF" fill-opacity="1.000000" fill-rule="nonzero"/>
	<path id="Vector" d="M9.79 14.53L28.14 14.53L28.14 36.72L9.79 36.72L9.79 14.53Z" fill="#404040" fill-opacity="1.000000" fill-rule="evenodd"/>
	<path id="Vector" d="M22.73 12.15L15.2 12.15C14.91 12.15 14.64 12.39 14.64 12.71C14.64 13.02 14.89 13.27 15.2 13.27L22.73 13.27C23.02 13.27 23.29 13.02 23.29 12.71C23.29 12.42 23.04 12.15 22.73 12.15Z" fill="#6639A6" fill-opacity="1.000000" fill-rule="nonzero"/>
	<path id="Vector" d="M17.18 39.4C17.18 38.41 17.99 37.58 18.98 37.58C19.96 37.58 20.8 38.39 20.8 39.4C20.8 40.38 19.99 41.19 18.98 41.19C17.99 41.22 17.18 40.41 17.18 39.4Z" fill="#6639A6" fill-opacity="1.000000" fill-rule="nonzero"/>
</svg>
