<svg width="153.761963" height="51.238770" viewBox="0 0 153.762 51.2388" fill="none" xmlns="http://www.w3.org/2000/svg" xmlns:xlink="http://www.w3.org/1999/xlink">
	<desc>
			Created with Pixso.
	</desc>
	<defs/>
	<path id="Vector" d="M153.76 37.67C153.76 45.12 147.65 51.23 140.19 51.23L13.56 51.23C6.11 51.23 0 45.12 0 37.67L0 13.56C0 6.1 6.11 0 13.56 0L140.19 0C147.65 0 153.76 6.1 153.76 13.56L153.76 37.67Z" fill="#404040" fill-opacity="1.000000" fill-rule="nonzero"/>
	<path id="android app on" d="M79.59 12.06C79.59 12.38 79.32 12.63 78.99 12.63C78.66 12.63 78.39 12.38 78.39 12.06C78.39 11.75 78.66 11.5 78.99 11.5C79.32 11.5 79.59 11.75 79.59 12.06ZM66.49 18.16C66.31 18.46 65.95 19.11 64.9 19.11C63.54 19.11 62.58 18.02 62.58 16.28C62.58 14.56 63.54 13.47 64.92 13.47C65.98 13.47 66.31 14.12 66.49 14.41L66.56 14.41L66.56 11.72L67.4 11.72L67.4 19L66.59 19L66.59 18.16L66.49 18.16ZM84.59 18.16C84.4 18.46 84.05 19.11 83 19.11C81.63 19.11 80.68 18.02 80.68 16.28C80.68 14.56 81.63 13.47 83.01 13.47C84.08 13.47 84.4 14.12 84.59 14.41L84.66 14.41L84.66 11.72L85.5 11.72L85.5 19L84.69 19L84.69 18.16L84.59 18.16ZM69.88 19L69.05 19L69.05 13.54L69.86 13.54L69.86 14.36L69.91 14.36C70.11 13.82 70.68 13.46 71.33 13.46C71.46 13.46 71.68 13.46 71.77 13.47L71.77 14.32C71.72 14.31 71.49 14.27 71.26 14.27C70.47 14.27 69.88 14.81 69.88 15.54L69.88 19ZM54.57 18.26C54.4 18.61 53.9 19.12 52.96 19.12C51.92 19.12 51.09 18.51 51.09 17.45C51.09 16.2 52.2 15.97 53.21 15.84C54.21 15.71 54.62 15.75 54.62 15.35L54.62 15.32C54.62 14.62 54.24 14.21 53.47 14.21C52.67 14.21 52.23 14.63 52.04 15.03L51.25 14.75C51.68 13.75 52.61 13.47 53.44 13.47C54.13 13.47 55.46 13.67 55.46 15.4L55.46 19L54.62 19L54.62 18.26L54.57 18.26ZM59.22 14.22C58.42 14.22 57.83 14.76 57.83 15.71L57.83 19L56.99 19L56.99 13.54L57.8 13.54L57.8 14.39L57.87 14.39C58.13 13.84 58.64 13.47 59.46 13.47C60.56 13.47 61.31 14.14 61.31 15.53L61.31 19L60.47 19L60.47 15.59C60.47 14.73 60 14.22 59.22 14.22ZM77.29 16.3C77.29 17.99 76.29 19.11 74.82 19.11C73.34 19.11 72.34 17.99 72.34 16.3C72.34 14.59 73.34 13.47 74.82 13.47C76.29 13.47 77.29 14.59 77.29 16.3ZM93.18 18.26C93.01 18.61 92.51 19.12 91.56 19.12C90.53 19.12 89.7 18.51 89.7 17.45C89.7 16.2 90.81 15.97 91.82 15.84C92.81 15.71 93.22 15.75 93.22 15.35L93.22 15.32C93.22 14.62 92.84 14.21 92.07 14.21C91.27 14.21 90.84 14.63 90.65 15.03L89.86 14.75C90.28 13.75 91.22 13.47 92.04 13.47C92.74 13.47 94.06 13.67 94.06 15.4L94.06 19L93.22 19L93.22 18.26L93.18 18.26ZM96.43 21.04L95.6 21.04L95.6 13.54L96.41 13.54L96.41 14.41L96.51 14.41C96.69 14.12 97.02 13.47 98.08 13.47C99.46 13.47 100.41 14.56 100.41 16.28C100.41 18.02 99.46 19.11 98.1 19.11C97.05 19.11 96.69 18.46 96.51 18.16L96.43 18.16L96.43 21.04ZM102.53 21.04L101.69 21.04L101.69 13.54L102.5 13.54L102.5 14.41L102.6 14.41C102.78 14.12 103.11 13.47 104.18 13.47C105.55 13.47 106.51 14.56 106.51 16.28C106.51 18.02 105.55 19.11 104.19 19.11C103.14 19.11 102.78 18.46 102.6 18.16L102.53 18.16L102.53 21.04ZM115.28 16.3C115.28 17.99 114.29 19.11 112.81 19.11C111.34 19.11 110.34 17.99 110.34 16.3C110.34 14.59 111.34 13.47 112.81 13.47C114.29 13.47 115.28 14.59 115.28 16.3ZM118.79 14.22C117.99 14.22 117.4 14.76 117.4 15.71L117.4 19L116.56 19L116.56 13.54L117.37 13.54L117.37 14.39L117.44 14.39C117.7 13.84 118.21 13.47 119.04 13.47C120.14 13.47 120.88 14.14 120.88 15.53L120.88 19L120.04 19L120.04 15.59C120.04 14.73 119.57 14.22 118.79 14.22ZM79.4 19L78.56 19L78.56 13.54L79.4 13.54L79.4 19ZM63.42 16.27C63.42 17.43 63.96 18.36 65.01 18.36C66.02 18.36 66.58 17.5 66.58 16.27C66.58 15.05 66.04 14.22 65.01 14.22C63.95 14.22 63.42 15.12 63.42 16.27ZM73.18 16.3C73.18 17.39 73.69 18.36 74.82 18.36C75.94 18.36 76.45 17.39 76.45 16.3C76.45 15.2 75.94 14.22 74.82 14.22C73.69 14.22 73.18 15.2 73.18 16.3ZM81.52 16.27C81.52 17.43 82.06 18.36 83.11 18.36C84.12 18.36 84.67 17.5 84.67 16.27C84.67 15.05 84.13 14.22 83.11 14.22C82.05 14.22 81.52 15.12 81.52 16.27ZM97.98 14.22C96.96 14.22 96.42 15.05 96.42 16.27C96.42 17.5 96.98 18.36 97.98 18.36C99.03 18.36 99.57 17.43 99.57 16.27C99.57 15.12 99.05 14.22 97.98 14.22ZM104.08 14.22C103.05 14.22 102.52 15.05 102.52 16.27C102.52 17.5 103.07 18.36 104.08 18.36C105.13 18.36 105.67 17.43 105.67 16.27C105.67 15.12 105.14 14.22 104.08 14.22ZM111.18 16.3C111.18 17.39 111.69 18.36 112.81 18.36C113.93 18.36 114.45 17.39 114.45 16.3C114.45 15.2 113.93 14.22 112.81 14.22C111.69 14.22 111.18 15.2 111.18 16.3ZM51.93 17.49C51.93 18.07 52.42 18.37 53.08 18.37C54.08 18.37 54.62 17.7 54.62 17.02L54.62 16.25C54.47 16.42 53.52 16.52 53.17 16.57C52.51 16.65 51.93 16.85 51.93 17.49ZM90.54 17.49C90.54 18.07 91.02 18.37 91.69 18.37C92.68 18.37 93.22 17.7 93.22 17.02L93.22 16.25C93.08 16.42 92.13 16.52 91.78 16.57C91.12 16.65 90.54 16.85 90.54 17.49Z" fill="#FFFFFF" fill-opacity="1.000000" fill-rule="evenodd"/>
	<path id="Google Play" d="M60.05 29.76L58.41 29.76C57.86 28.04 56.57 26.97 54.68 26.97C52.35 26.97 50.49 28.81 50.49 32.21C50.49 35.61 52.35 37.45 54.78 37.45C57 37.45 58.55 35.97 58.59 33.62L55.14 33.62L55.14 32.21L60.13 32.21L60.13 33.62C60.13 36.86 57.9 38.94 54.78 38.94C51.31 38.94 48.95 36.35 48.95 32.21C48.95 28.07 51.33 25.48 54.68 25.48C57.44 25.48 59.56 27.22 60.05 29.76ZM95.08 25.66L96.59 25.66L96.59 38.76L95.08 38.76L95.08 25.66ZM116.68 38.76L115.1 38.76L115.1 25.66L119.52 25.66C122.6 25.66 123.97 27.49 123.97 29.81C123.97 32.12 122.6 33.97 119.55 33.97L116.68 33.97L116.68 38.76ZM126.32 25.66L127.83 25.66L127.83 38.76L126.32 38.76L126.32 25.66ZM116.68 27.07L116.68 32.57L119.49 32.57C121.6 32.57 122.41 31.38 122.41 29.81C122.41 28.24 121.6 27.07 119.47 27.07L116.68 27.07ZM71.07 33.9C71.07 36.94 69.28 38.96 66.62 38.96C63.96 38.96 62.17 36.94 62.17 33.9C62.17 30.83 63.96 28.81 66.62 28.81C69.28 28.81 71.07 30.83 71.07 33.9ZM81.81 33.9C81.81 36.94 80.02 38.96 77.36 38.96C74.7 38.96 72.91 36.94 72.91 33.9C72.91 30.83 74.7 28.81 77.36 28.81C80.02 28.81 81.81 30.83 81.81 33.9ZM92.32 39.04C92.32 41.57 90.42 42.64 88.07 42.64C85.88 42.64 84.67 41.7 84.06 40.67L85.26 39.83C85.66 40.37 86.29 41.31 88.07 41.31C89.66 41.31 90.81 40.57 90.81 38.94L90.81 36.94L90.68 36.94C90.35 37.48 89.73 38.6 87.82 38.6C85.44 38.6 83.65 36.86 83.65 33.79C83.65 30.78 85.36 28.81 87.84 28.81C89.76 28.81 90.38 29.98 90.71 30.5L90.86 30.5L90.86 28.94L92.32 28.94L92.32 39.04ZM107.38 36.48C106.92 37.96 105.46 38.96 103.47 38.96C100.63 38.96 98.89 36.94 98.89 33.92C98.89 30.91 100.65 28.81 103.31 28.81C105.36 28.81 107.53 30.06 107.53 33.72L107.53 34.36L100.4 34.36C100.47 36.46 101.69 37.6 103.47 37.6C104.65 37.6 105.54 37.09 105.92 36.07L107.38 36.48ZM136.4 37.42C136.09 38.07 135.19 38.98 133.48 38.98C131.62 38.98 130.13 37.89 130.13 35.97C130.13 33.72 132.12 33.32 133.94 33.08C135.73 32.85 136.47 32.92 136.47 32.19L136.47 32.13C136.47 30.88 135.79 30.14 134.4 30.14C132.97 30.14 132.18 30.91 131.84 31.62L130.41 31.11C131.18 29.32 132.87 28.81 134.35 28.81C135.61 28.81 137.98 29.17 137.98 32.29L137.98 38.76L136.47 38.76L136.47 37.42L136.4 37.42ZM144.25 40.19C143.68 41.71 142.72 42.44 141.36 42.44C140.85 42.44 140.41 42.34 140.26 42.26L140.64 40.93C141.74 41.21 142.42 41.07 142.97 39.57L143.25 38.81L139.62 28.94L141.25 28.94L143.97 36.76L144.07 36.76L146.78 28.94L148.41 28.94L144.25 40.19ZM63.68 33.9C63.68 35.87 64.6 37.6 66.62 37.6C68.64 37.6 69.56 35.87 69.56 33.9C69.56 31.93 68.64 30.16 66.62 30.16C64.6 30.16 63.68 31.93 63.68 33.9ZM74.42 33.9C74.42 35.87 75.34 37.6 77.36 37.6C79.38 37.6 80.3 35.87 80.3 33.9C80.3 31.93 79.38 30.16 77.36 30.16C75.34 30.16 74.42 31.93 74.42 33.9ZM85.16 33.77C85.16 35.82 86.13 37.25 88.02 37.25C89.84 37.25 90.83 35.94 90.83 33.77C90.83 31.65 89.86 30.16 88.02 30.16C86.1 30.16 85.16 31.78 85.16 33.77ZM103.31 30.16C101.59 30.16 100.5 31.53 100.4 33.06L106 33.06C106 31.39 104.95 30.16 103.31 30.16ZM131.64 36.04C131.64 37.09 132.51 37.63 133.71 37.63C135.5 37.63 136.47 36.43 136.47 35.2L136.47 33.82C136.22 34.13 134.5 34.31 133.87 34.38C132.69 34.54 131.64 34.89 131.64 36.04Z" fill="#FFFFFF" fill-opacity="1.000000" fill-rule="evenodd"/>
	<path id="Vector" d="M8.67 42.11L8.67 9.14L38.32 25.15L8.67 42.11Z" fill="#5CA9B3" fill-opacity="1.000000" fill-rule="nonzero"/>
	<path id="Vector" d="M8.67 9.14L29.65 30.12L38.32 25.15L8.67 9.14Z" fill="#C8DB9B" fill-opacity="1.000000" fill-rule="nonzero"/>
	<path id="Vector" d="M29.47 20.37L8.67 42.11L38.32 25.15L29.47 20.37Z" fill="#AC5067" fill-opacity="1.000000" fill-rule="nonzero"/>
	<path id="Vector" d="M29.65 30.12L38.32 25.15L29.47 20.37L24.79 25.27L29.65 30.12Z" fill="#F4A676" fill-opacity="1.000000" fill-rule="nonzero"/>
</svg>
